<svg width="18" height="18" viewBox="0 0 18 18" fill="none" xmlns="http://www.w3.org/2000/svg">
<path d="M4.99713 7.82596C6.13013 6.69296 8.10613 6.69296 9.23913 7.82596L9.94613 8.53296L11.3601 7.11896L10.6531 6.41196C9.71013 5.46796 8.45413 4.94696 7.11813 4.94696C5.78213 4.94696 4.52613 5.46796 3.58313 6.41196L1.46113 8.53296C0.525422 9.47168 0 10.743 0 12.0685C0 13.3939 0.525422 14.6652 1.46113 15.604C1.925 16.0685 2.47609 16.4368 3.08274 16.6877C3.68939 16.9386 4.33964 17.0671 4.99613 17.066C5.65279 17.0673 6.30324 16.9389 6.91008 16.688C7.51692 16.4371 8.06817 16.0687 8.53213 15.604L9.23913 14.897L7.82513 13.483L7.11813 14.19C6.5546 14.751 5.7918 15.0659 4.99663 15.0659C4.20146 15.0659 3.43866 14.751 2.87513 14.19C2.31363 13.6267 1.99833 12.8638 1.99833 12.0685C1.99833 11.2731 2.31363 10.5102 2.87513 9.94696L4.99713 7.82596Z" fill="white"/>
<path d="M8.53213 1.46195L7.82513 2.16895L9.23913 3.58295L9.94613 2.87595C10.5097 2.31494 11.2725 1.99998 12.0676 1.99998C12.8628 1.99998 13.6256 2.31494 14.1891 2.87595C14.7506 3.43922 15.0659 4.20212 15.0659 4.99745C15.0659 5.79279 14.7506 6.55568 14.1891 7.11895L12.0671 9.23995C10.9341 10.373 8.95813 10.373 7.82513 9.23995L7.11813 8.53295L5.70413 9.94695L6.41113 10.654C7.35413 11.598 8.61013 12.119 9.94613 12.119C11.2821 12.119 12.5381 11.598 13.4811 10.654L15.6031 8.53295C16.5388 7.59424 17.0643 6.32287 17.0643 4.99745C17.0643 3.67203 16.5388 2.40067 15.6031 1.46195C14.6647 0.525758 13.3932 0 12.0676 0C10.7421 0 9.47059 0.525758 8.53213 1.46195Z" fill="white"/>
</svg>
